<?xml version="1.0" standalone="no"?>
<!DOCTYPE svg PUBLIC "-//W3C//DTD SVG 20010904//EN"
 "http://www.w3.org/TR/2001/REC-SVG-20010904/DTD/svg10.dtd">
<svg version="1.0" xmlns="http://www.w3.org/2000/svg"
 width="1079.000000pt" height="1079.000000pt" viewBox="0 0 1079.000000 1079.000000"
 preserveAspectRatio="xMidYMid meet">
<metadata>
Created by potrace 1.14, written by Peter Selinger 2001-2017
</metadata>
<g transform="translate(0.000000,1079.000000) scale(0.100000,-0.100000)"
fill="#000000" stroke="none">
<path d="M5692 10413 c-67 -117 -192 -373 -192 -395 0 -9 -4 -20 -10 -23 -5
-3 -10 2 -10 12 0 10 -18 42 -40 71 -22 29 -40 56 -40 60 0 17 -69 74 -83 69
-9 -3 -20 -31 -27 -64 -28 -135 -40 -167 -70 -191 -48 -37 -160 -183 -160
-207 0 -13 -27 -79 -60 -147 -33 -69 -82 -187 -108 -263 -27 -76 -54 -141 -60
-143 -7 -2 -16 8 -21 21 -14 37 -24 39 -62 13 -19 -12 -63 -35 -99 -50 -35
-15 -103 -55 -150 -90 -47 -34 -92 -65 -102 -68 -16 -7 -66 -96 -194 -348
l-69 -135 -30 59 c-17 33 -35 61 -41 63 -35 12 -152 -170 -168 -262 -4 -22
-19 -73 -33 -113 -20 -56 -35 -80 -61 -100 -82 -64 -161 -130 -212 -177 -30
-28 -124 -98 -209 -155 -394 -268 -775 -647 -1043 -1040 -331 -485 -539 -1008
-634 -1590 -60 -365 -59 -888 1 -1250 31 -188 79 -390 134 -565 22 -71 107
-299 121 -325 7 -14 -19 -74 -116 -269 -83 -167 -124 -260 -122 -277 3 -26 28
-45 82 -64 l28 -10 -7 -650 c-7 -620 -7 -650 10 -657 17 -6 78 11 150 42 17 7
71 29 120 48 50 20 158 62 240 94 l150 59 5 -245 5 -246 26 -3 c14 -2 129 22
255 53 126 31 303 74 394 96 91 21 181 44 200 49 19 5 91 23 159 40 l123 30
102 -53 c91 -48 197 -98 326 -155 62 -27 265 -102 323 -118 26 -8 71 -21 100
-29 177 -52 371 -94 582 -125 124 -18 190 -20 568 -20 236 0 447 4 470 9 23 6
92 17 152 27 128 19 290 54 425 90 117 32 299 90 322 104 10 5 23 10 29 10 6
0 25 6 42 14 18 8 75 33 128 55 53 22 147 65 210 96 72 35 127 55 149 55 52 0
155 32 243 76 91 45 191 133 304 267 42 51 170 184 284 297 368 366 578 648
789 1065 183 362 307 738 365 1110 9 55 20 108 26 117 5 11 9 214 9 497 0 461
-1 485 -25 641 -14 89 -25 197 -25 239 0 113 -23 206 -66 268 -21 30 -55 106
-79 175 -66 192 -103 280 -195 463 -197 393 -419 701 -730 1016 -251 253 -536
475 -827 644 -46 26 -83 53 -83 59 0 6 29 128 64 271 63 253 96 387 157 645
16 69 34 141 39 160 6 19 15 57 21 85 5 27 15 55 20 62 6 6 9 22 7 35 -4 30
-36 40 -230 73 -617 104 -785 154 -818 241 -20 53 -74 117 -126 150 -29 19
-58 34 -65 34 -6 0 -26 7 -45 16 -34 16 -34 17 -35 83 -1 115 -9 144 -49 162
-211 99 -462 231 -509 269 -55 44 -233 150 -252 150 -10 0 -35 -33 -67 -87z
m362 -146 c6 -2 9 -7 6 -10 -4 -5 -156 81 -191 109 -8 6 -22 14 -31 17 -15 5
-16 3 -1 -41 8 -26 20 -102 25 -169 l11 -122 -36 -74 c-40 -80 -44 -92 -24
-81 10 6 10 4 0 -7 -9 -8 -16 -10 -23 -3 -6 6 5 37 32 89 l41 79 -11 116 c-6
69 -20 144 -35 186 l-24 71 125 -78 c69 -43 130 -80 136 -82z m-264 -95 l10
-113 -40 -80 c-32 -63 -38 -83 -30 -99 8 -15 6 -20 -13 -25 -12 -3 -38 -11
-58 -17 -33 -9 -47 -7 -120 21 l-84 32 -22 -25 c-27 -32 -30 -32 -61 -3 l-24
22 -34 -40 c-18 -22 -34 -35 -34 -30 0 19 30 180 46 248 l17 68 23 -28 c13
-15 42 -65 64 -110 23 -46 47 -83 54 -83 21 0 32 19 94 161 32 75 82 178 112
231 l55 95 18 -56 c10 -31 22 -107 27 -169z m310 68 c8 -5 11 -10 5 -10 -5 0
-17 5 -25 10 -8 5 -10 10 -5 10 6 0 17 -5 25 -10z m50 -30 c8 -5 11 -10 5 -10
-5 0 -17 5 -25 10 -8 5 -10 10 -5 10 6 0 17 -5 25 -10z m94 -52 c27 -17 28
-19 6 -12 -14 3 -27 10 -30 13 -3 4 -16 12 -30 19 l-25 12 24 -6 c14 -4 38
-15 55 -26z m246 -118 c6 0 10 -4 10 -10 0 -5 -7 -10 -15 -10 -8 0 -15 3 -15
8 0 4 -43 27 -95 52 -52 25 -95 48 -95 52 0 4 45 -16 100 -43 56 -27 105 -49
110 -49z m-37 -27 c-7 -2 -19 -2 -25 0 -7 3 -2 5 12 5 14 0 19 -2 13 -5z m-66
-19 c-3 -3 -12 -4 -19 -1 -8 3 -5 6 6 6 11 1 17 -2 13 -5z m-159 -11 c-49 -2
-127 -2 -175 0 -49 1 -9 3 87 3 96 0 136 -2 88 -3z m-318 -27 c0 -2 -7 -7 -16
-10 -8 -3 -12 -2 -9 4 6 10 25 14 25 6z m-50 -36 c-8 -5 -19 -10 -25 -10 -5 0
-3 5 5 10 8 5 20 10 25 10 6 0 3 -5 -5 -10z m-644 -147 c-21 -137 -25 -153
-35 -153 -5 0 -11 18 -15 40 -3 22 -14 55 -23 74 l-16 35 49 60 c26 33 50 58
52 56 2 -2 -3 -52 -12 -112z m1417 -12 c61 -26 121 -82 147 -137 11 -25 32
-57 45 -70 21 -21 23 -28 13 -44 -11 -17 -16 -13 -55 46 -24 35 -50 64 -59 64
-8 0 -22 -16 -30 -35 -8 -19 -16 -35 -19 -35 -3 0 -11 16 -19 35 -14 33 -46
49 -46 23 0 -7 -9 -2 -20 12 -15 19 -20 41 -20 93 0 37 4 67 9 67 5 0 30 -9
54 -19z m-499 -123 c18 -74 21 -138 7 -138 -5 0 -19 12 -31 27 l-22 28 -23
-27 c-17 -19 -25 -23 -28 -14 -7 17 65 207 74 198 3 -4 14 -37 23 -74z m-1018
-14 c7 -58 5 -64 -37 -81 -46 -20 -49 -3 -16 69 18 37 35 68 39 68 4 0 10 -25
14 -56z m1947 -601 c-7 -2 -19 -2 -25 0 -7 3 -2 5 12 5 14 0 19 -2 13 -5z
m317 -33 c8 -5 11 -10 5 -10 -5 0 -17 5 -25 10 -8 5 -10 10 -5 10 6 0 17 -5
25 -10z m-1313 -62 c-3 -8 -6 -5 -6 6 -1 11 2 17 5 13 3 -3 4 -12 1 -19z
m-681 -14 c24 -3 33 -11 36 -29 4 -20 1 -25 -16 -24 -11 0 -30 4 -41 9 -18 8
-17 9 8 9 32 1 36 17 6 26 -25 8 -72 -2 -64 -14 2 -5 -12 -12 -32 -16 -21 -4
-58 -14 -82 -22 -44 -15 -46 -14 -63 8 -16 19 -17 24 -5 36 26 26 141 34 253
17z m2239 -4 c3 -6 -1 -7 -9 -4 -18 7 -21 14 -7 14 6 0 13 -4 16 -10z m-1730
-10 c3 -5 1 -10 -4 -10 -6 0 -11 5 -11 10 0 6 2 10 4 10 3 0 8 -4 11 -10z
m1782 -16 c-3 -3 -12 -4 -19 -1 -8 3 -5 6 6 6 11 1 17 -2 13 -5z m-2389 -694
c55 -38 122 -83 149 -98 58 -34 201 -92 302 -122 94 -29 151 -81 174 -161 9
-29 15 -54 13 -56 -1 -1 -30 2 -64 8 -54 10 -62 14 -62 34 0 12 -13 40 -29 63
-32 44 -79 66 -206 96 -100 24 -143 43 -200 85 -42 31 -170 113 -194 123 -9 4
-1 98 8 98 4 0 53 -31 109 -70z m584 -497 c32 -3 58 -9 58 -13 0 -29 -109
-119 -210 -172 -142 -75 -220 -88 -561 -88 -345 0 -508 -25 -688 -104 -141
-62 -261 -87 -451 -93 -185 -6 -268 4 -477 58 -143 37 -207 56 -338 104 -55
20 -122 43 -149 52 l-50 15 40 34 c21 19 46 32 54 29 8 -2 62 -21 120 -40 196
-67 397 -98 722 -111 222 -9 338 14 498 100 174 92 220 108 345 121 61 5 428
-17 585 -36 61 -7 100 -7 135 1 70 15 187 75 238 121 23 21 48 36 56 33 8 -2
41 -7 73 -11z m-2996 -1390 c-9 -82 -106 -1327 -106 -1358 l0 -25 215 0 215 0
-4 -22 c-3 -13 -8 -67 -11 -120 l-7 -98 -345 0 -344 0 5 53 c8 65 126 1577
126 1606 0 20 5 21 131 21 l131 0 -6 -57z m1187 -770 c37 -456 68 -834 67
-840 0 -10 -32 -13 -124 -13 l-124 0 -6 48 c-3 26 -8 100 -12 165 l-6 117
-153 0 -153 0 -17 -77 c-9 -43 -26 -117 -37 -165 l-20 -88 -118 0 -118 0 24
98 c105 443 253 1060 302 1262 33 135 63 262 67 283 l7 37 177 0 177 0 67
-827z m746 350 c45 -263 86 -491 90 -508 8 -29 8 -29 14 15 4 25 20 225 37
445 17 220 33 428 36 463 l6 62 115 0 114 0 -6 -52 c-7 -67 -125 -1575 -125
-1605 0 -23 -1 -23 -133 -23 l-133 0 -109 610 c-96 538 -125 673 -125 586 0
-13 -20 -283 -45 -599 -25 -317 -45 -580 -45 -586 0 -7 -39 -11 -116 -11
l-116 0 6 58 c3 31 24 289 46 572 22 283 49 625 60 760 11 134 20 254 20 267
l0 23 163 0 163 0 83 -477z m1317 390 c-4 -49 -9 -103 -12 -120 l-5 -33 -224
0 c-173 0 -225 -3 -225 -12 0 -7 -7 -89 -15 -183 -8 -93 -15 -187 -15 -207 l0
-38 178 0 177 0 -7 -82 c-3 -46 -7 -100 -7 -120 l-1 -38 -180 0 c-178 0 -180
0 -184 -22 -5 -24 -36 -437 -36 -475 l0 -23 226 0 225 0 -5 -42 c-3 -24 -8
-78 -12 -120 l-6 -78 -355 0 -354 0 5 53 c8 65 126 1577 126 1606 0 21 1 21
356 21 l356 0 -6 -87z m859 -15 c-4 -57 -9 -111 -11 -120 -5 -17 -25 -18 -230
-18 -172 0 -224 -3 -224 -12 0 -7 -7 -89 -15 -183 -8 -93 -15 -187 -15 -207
l0 -38 178 0 177 0 -7 -82 c-3 -46 -7 -100 -7 -120 l-1 -38 -180 0 c-178 0
-180 0 -184 -22 -5 -24 -36 -437 -36 -475 l0 -23 226 0 225 0 -5 -52 c-3 -29
-8 -83 -11 -120 l-7 -68 -355 0 -354 0 5 53 c8 65 126 1577 126 1606 0 21 1
21 356 21 l356 0 -7 -102z m-5132 -2225 c-7 -2 -13 -12 -13 -21 0 -14 -1 -14
-12 0 -7 9 -20 18 -28 21 -8 3 3 5 25 5 22 0 34 -2 28 -5z m17 -73 c0 -13 -5
-18 -14 -14 -8 3 -12 12 -9 20 8 21 23 17 23 -6z m73 1 c-3 -12 -11 -17 -19
-14 -23 9 -14 33 12 33 7 0 10 -8 7 -19z m515 -24 c14 -4 13 -5 -3 -6 -11 0
-27 4 -35 9 -13 9 -13 11 0 20 11 7 16 5 18 -5 2 -7 11 -16 20 -18z m132 3
c-24 -24 -40 -26 -40 -5 0 8 6 12 14 9 8 -3 17 -1 21 5 3 6 10 11 16 11 5 0 0
-9 -11 -20z m-408 -15 c-2 -14 -11 -25 -18 -25 -17 0 -18 16 -1 35 18 21 25
18 19 -10z m132 9 c7 -18 -18 -19 -32 -1 -8 10 -6 13 8 14 10 1 21 -5 24 -13z
m336 -4 c0 -11 -2 -20 -4 -20 -2 0 -6 9 -9 20 -3 11 -1 20 4 20 5 0 9 -9 9
-20z m-596 -6 c9 -22 8 -23 -13 -17 -12 3 -17 11 -14 19 7 19 19 18 27 -2z
m442 -19 c-1 -28 -26 -35 -26 -7 0 10 3 22 7 25 13 14 21 6 19 -18z m-493 5
c9 0 9 -2 1 -8 -7 -4 -13 -15 -15 -24 -4 -15 -6 -15 -24 -1 -14 11 -16 17 -7
20 6 3 9 10 5 16 -4 7 0 8 11 4 10 -4 23 -7 29 -7z m371 -6 c22 -9 20 -20 -4
-20 -11 0 -20 6 -20 13 0 15 2 15 24 7z m347 -24 c26 0 56 -29 62 -59 4 -19
18 -36 42 -51 19 -12 35 -26 35 -31 0 -6 5 -7 12 -3 8 5 9 2 4 -11 -9 -24 2
-55 20 -55 26 0 56 -40 50 -65 -8 -33 1 -51 38 -73 22 -13 35 -30 39 -51 5
-23 16 -36 42 -48 25 -12 35 -23 35 -40 0 -29 -17 -29 -40 0 -16 19 -21 20
-40 9 -17 -10 -25 -10 -36 -1 -12 10 -12 13 3 24 15 12 15 15 -1 49 -20 43
-56 51 -56 11 0 -13 6 -28 14 -32 12 -6 10 -10 -9 -19 -20 -10 -24 -9 -28 7
-3 11 -1 22 4 25 12 7 11 44 -1 44 -16 0 -12 27 5 34 17 6 21 36 5 36 -5 0
-10 11 -10 25 0 27 -31 48 -38 26 -3 -8 -11 -4 -24 11 -17 20 -18 23 -4 26 18
4 22 27 6 37 -5 3 -7 12 -4 19 7 17 -22 40 -41 32 -19 -7 -19 -30 1 -50 14
-15 13 -17 -8 -25 -17 -6 -24 -5 -29 8 -4 9 -2 18 2 19 14 6 10 32 -7 49 -11
12 -12 18 -4 23 17 11 3 68 -20 80 -28 15 -40 12 -40 -10 0 -18 -1 -19 -18 -4
-12 10 -17 24 -14 40 4 23 6 24 22 9 9 -8 23 -15 31 -15z m-603 -3 c5 -24 -24
-21 -31 4 -4 15 -1 19 11 17 9 -2 18 -11 20 -21z m140 6 c6 -19 -25 -16 -32 3
-4 11 -1 14 11 12 9 -2 18 -9 21 -15z m372 -3 c0 -12 -28 -20 -45 -14 -11 5
-13 10 -5 19 11 13 50 9 50 -5z m287 14 c-3 -3 -12 -4 -19 -1 -8 3 -5 6 6 6
11 1 17 -2 13 -5z m496 -1 c-35 -2 -91 -2 -125 0 -35 2 -7 3 62 3 69 0 97 -1
63 -3z m544 1 c-3 -3 -12 -4 -19 -1 -8 3 -5 6 6 6 11 1 17 -2 13 -5z m-984
-11 c-7 -2 -19 -2 -25 0 -7 3 -2 5 12 5 14 0 19 -2 13 -5z m100 0 c-7 -2 -21
-2 -30 0 -10 3 -4 5 12 5 17 0 24 -2 18 -5z m54 1 c-3 -3 -12 -4 -19 -1 -8 3
-5 6 6 6 11 1 17 -2 13 -5z m-707 -8 c0 -3 -4 -8 -10 -11 -5 -3 -10 -1 -10 4
0 6 5 11 10 11 6 0 10 -2 10 -4z m-350 -28 c0 -12 -48 -10 -55 2 -4 6 5 10 24
8 17 -1 31 -6 31 -10z m114 -3 c3 -9 0 -15 -8 -15 -8 0 -16 7 -20 15 -3 9 0
15 8 15 8 0 16 -7 20 -15z m136 5 c0 -5 -9 -10 -20 -10 -11 0 -20 5 -20 10 0
6 9 10 20 10 11 0 20 -4 20 -10z m310 -46 c0 -3 -7 -1 -15 6 -8 7 -15 17 -15
22 0 5 7 3 15 -6 8 -8 15 -18 15 -22z m90 6 c13 -9 13 -11 0 -20 -8 -5 -18
-10 -22 -10 -11 0 -20 19 -13 30 8 12 16 12 35 0z m74 -186 c20 -8 21 -20 1
-28 -9 -3 -19 3 -25 14 -11 21 -4 25 24 14z m85 -57 c-2 -1 -14 -8 -26 -14
-19 -11 -21 -10 -17 2 4 9 1 22 -5 29 -10 11 -8 15 6 18 15 3 53 -29 42 -35z
m-12 -73 c13 -13 14 -17 3 -24 -26 -16 -54 13 -33 33 9 10 13 9 30 -9z m68
-115 c4 -6 14 -8 22 -4 13 4 14 3 3 -10 -7 -8 -10 -26 -8 -40 4 -20 -1 -29
-31 -47 -20 -12 -37 -26 -39 -30 -15 -34 -68 38 -58 78 11 41 42 29 37 -13 -3
-18 10 -16 25 5 13 16 13 16 14 0 0 -22 13 -23 30 -3 11 13 9 20 -9 39 -11 12
-18 26 -14 29 9 10 21 9 28 -4z m101 -29 c21 0 17 -18 -7 -25 -27 -9 -31 -3
-22 31 5 21 8 24 11 12 2 -10 10 -18 18 -18z m80 -38 c-22 -5 -30 3 -21 18 5
8 11 7 22 -2 15 -12 14 -13 -1 -16z m159 -20 c-11 -2 -23 -9 -26 -14 -4 -6
-12 -9 -19 -6 -24 8 17 37 42 30 22 -6 22 -6 3 -10z m-1255 -7 c0 -8 -7 -15
-15 -15 -16 0 -20 12 -8 23 11 12 23 8 23 -8z m29 -47 c-31 -61 -32 -62 -42
-38 -6 14 -9 31 -8 39 1 7 -2 10 -8 6 -6 -3 -11 -2 -11 4 0 5 18 12 40 16 25
4 40 12 40 21 0 8 5 14 10 14 6 0 -4 -28 -21 -62z m1111 42 c13 0 17 -5 13
-19 -5 -19 -5 -19 -24 0 -10 10 -19 25 -18 32 0 10 2 10 6 0 2 -7 13 -13 23
-13z m150 -53 c8 -3 2 -5 -14 -3 -17 1 -32 8 -34 15 -3 10 1 10 14 3 11 -5 26
-12 34 -15z m70 -2 c0 -8 -4 -15 -10 -15 -5 0 -10 4 -10 9 0 5 -8 12 -17 14
-11 3 -7 5 10 6 18 1 27 -4 27 -14z m46 -60 c14 -13 14 -15 -1 -15 -14 0 -16
-7 -13 -32 5 -28 4 -29 -9 -13 -14 20 -18 57 -6 68 9 10 13 9 29 -8z m110 -28
c17 -15 25 -30 22 -42 -4 -18 -6 -16 -16 8 -15 36 -41 46 -58 22 -13 -17 -14
-17 -14 -2 0 9 -4 17 -10 17 -5 0 -10 5 -10 10 0 19 59 10 86 -13z m-26 -71
c0 -21 -20 -30 -33 -17 -9 9 -8 14 3 21 21 14 30 12 30 -4z m117 -149 c-1 -60
1 -69 23 -84 14 -10 36 -30 50 -44 14 -16 41 -30 63 -34 22 -4 37 -13 37 -21
0 -8 -4 -14 -10 -14 -5 0 -10 5 -10 10 0 6 -11 10 -25 10 -18 0 -25 -5 -25
-20 0 -17 -3 -19 -19 -11 -13 8 -17 18 -13 37 4 22 2 26 -12 21 -10 -4 -16 -1
-16 9 0 21 -31 30 -44 13 -9 -13 -13 -12 -28 3 -16 16 -16 18 -2 18 13 0 15 7
9 38 -9 49 -20 60 -45 44 -18 -11 -20 -10 -20 13 0 14 -4 25 -10 25 -5 0 -10
5 -10 10 0 6 9 10 19 10 14 0 18 -5 14 -20 -4 -15 0 -20 16 -20 18 0 21 6 21
48 0 56 -5 65 -32 51 -17 -9 -18 -8 -7 10 13 19 14 19 45 -7 29 -26 31 -31 31
-95z m-119 64 c11 -6 9 -9 -5 -13 -12 -3 -20 0 -20 8 0 16 6 17 25 5z m-21
-83 c-3 -8 -6 -5 -6 6 -1 11 2 17 5 13 3 -3 4 -12 1 -19z m-126 -428 c74 -96
204 -265 289 -375 85 -110 180 -234 213 -275 32 -41 112 -145 177 -231 l118
-156 -46 23 c-26 13 -92 44 -147 70 -144 67 -242 113 -395 187 -74 35 -160 76
-190 90 -120 55 -234 109 -555 261 -66 32 -147 70 -180 86 -33 16 -141 67
-239 114 -98 47 -180 86 -182 86 -2 0 -61 27 -131 61 -70 33 -158 74 -195 91
-74 35 -75 33 12 74 48 23 157 12 225 -22 86 -43 109 -56 130 -75 11 -9 55
-40 97 -68 68 -44 102 -61 206 -102 36 -14 95 -11 133 9 44 22 189 143 216
180 11 15 30 68 42 117 12 50 26 99 31 110 15 33 47 109 54 128 6 20 -1 29
317 -383z m156 394 c-3 -3 -12 -4 -19 -1 -8 3 -5 6 6 6 11 1 17 -2 13 -5z m45
-56 c-6 -13 -11 -31 -9 -40 1 -9 -2 -17 -8 -17 -13 -1 -14 70 -1 87 16 22 32
-4 18 -30z m97 -104 c-5 -6 -6 -19 -3 -29 5 -12 3 -16 -7 -13 -18 6 -28 49
-15 70 9 15 11 15 22 0 8 -11 9 -21 3 -28z m256 6 c3 -5 2 -10 -4 -10 -5 0
-13 5 -16 10 -3 6 -2 10 4 10 5 0 13 -4 16 -10z m55 -24 c0 -19 -4 -23 -20
-19 -32 8 -23 38 13 42 4 1 7 -10 7 -23z m136 -3 c-2 -2 -11 0 -20 3 -14 5
-15 9 -5 15 12 7 34 -10 25 -18z m139 17 c7 -12 -2 -12 -30 0 -19 8 -19 9 2 9
12 1 25 -3 28 -9z m145 -15 c0 -8 -3 -15 -6 -15 -3 0 -12 7 -20 15 -14 13 -13
15 5 15 12 0 21 -6 21 -15z m-592 -6 c26 14 42 14 42 0 0 -6 -6 -9 -14 -6 -19
8 -58 -22 -52 -39 4 -12 2 -12 -14 -4 -23 12 -24 14 -9 42 8 15 13 17 19 8 6
-9 13 -9 28 -1z m376 -14 c4 -13 2 -14 -14 -5 -23 13 -26 20 -6 20 8 0 16 -7
20 -15z m-664 -30 c0 -14 -6 -25 -12 -26 -10 0 -10 -2 0 -6 14 -6 16 -40 2
-45 -5 -1 -12 -18 -14 -36 -2 -21 0 -31 8 -29 6 2 10 12 10 21 -1 9 2 16 6 16
7 0 7 -67 1 -114 -1 -10 -31 13 -31 24 0 5 -12 22 -27 38 -43 45 -78 95 -77
109 1 7 -4 13 -11 13 -7 0 -18 7 -25 15 -8 9 -8 15 -2 15 6 0 13 -6 15 -12 4
-10 8 -10 14 -2 4 6 18 14 29 18 16 5 23 2 27 -14 6 -23 37 -27 37 -5 0 8 7
15 15 15 8 0 15 7 15 15 0 8 5 15 10 15 6 0 10 -11 10 -25z m391 3 c10 -18 9
-20 -6 -15 -9 4 -19 7 -21 7 -2 0 -4 7 -4 15 0 22 18 18 31 -7z m134 12 c3 -5
2 -10 -4 -10 -5 0 -13 5 -16 10 -3 6 -2 10 4 10 5 0 13 -4 16 -10z m410 -10
c18 -8 17 -9 -7 -9 -16 -1 -28 4 -28 9 0 12 8 12 35 0z m-2595 -4 c0 -2 -8
-10 -17 -17 -16 -13 -17 -12 -4 4 13 16 21 21 21 13z m1995 -26 c4 -6 -5 -10
-19 -10 -14 0 -26 5 -26 10 0 6 9 10 19 10 11 0 23 -4 26 -10z m665 0 c0 -5
-4 -10 -10 -10 -5 0 -10 5 -10 10 0 6 5 10 10 10 6 0 10 -4 10 -10z m-537 -7
c-7 -2 -19 -2 -25 0 -7 3 -2 5 12 5 14 0 19 -2 13 -5z m567 -44 c0 -6 -4 -7
-10 -4 -5 3 -10 11 -10 16 0 6 5 7 10 4 6 -3 10 -11 10 -16z m58 -60 c-3 -8
-7 -3 -11 10 -4 17 -3 21 5 13 5 -5 8 -16 6 -23z m22 -53 c0 -2 -7 -7 -16 -10
-8 -3 -12 -2 -9 4 6 10 25 14 25 6z m7 -68 c-3 -7 -5 -2 -5 12 0 14 2 19 5 13
2 -7 2 -19 0 -25z m1 -63 c-3 -3 -9 2 -12 12 -6 14 -5 15 5 6 7 -7 10 -15 7
-18z m-15 -132 c-8 -3 -8 -14 -3 -34 6 -20 5 -29 -3 -29 -10 0 -13 23 -8 73 1
5 6 5 13 1 8 -5 9 -9 1 -11z m-2120 -380 c-2 -180 -6 -329 -10 -333 -5 -3 -33
-16 -63 -27 -30 -12 -139 -55 -242 -96 l-186 -74 39 64 c44 72 48 105 23 198
-10 34 -17 101 -18 155 -1 92 0 97 38 168 60 113 199 231 273 232 12 0 23 4
25 10 2 5 28 14 58 19 30 5 57 9 60 10 3 0 4 -146 3 -326z m2077 277 c0 -5 -4
-10 -10 -10 -5 0 -10 5 -10 10 0 6 5 10 10 10 6 0 10 -4 10 -10z m-76 -115
c-4 -8 -10 -15 -15 -15 -5 0 -9 7 -9 15 0 8 7 15 15 15 9 0 12 -6 9 -15z
m-250 -150 c-4 -8 -7 -15 -9 -15 -2 0 -5 7 -9 15 -3 9 0 15 9 15 9 0 12 -6 9
-15z m-10 -70 c-4 -8 -13 -15 -21 -15 -13 0 -13 3 -3 15 7 8 16 15 21 15 5 0
6 -7 3 -15z m-51 -49 c-3 -16 -10 -23 -19 -19 -10 4 -11 9 -1 24 16 26 25 24
20 -5z m-597 -72 c99 -47 202 -96 229 -109 28 -14 113 -54 189 -89 77 -36 133
-67 125 -70 -7 -3 -54 -14 -104 -26 -49 -12 -144 -34 -210 -50 -66 -16 -187
-45 -270 -65 -82 -19 -166 -40 -185 -45 -19 -6 -55 -15 -80 -20 -25 -5 -181
-43 -348 -84 -166 -42 -304 -76 -307 -76 -3 0 -1 8 4 18 5 9 19 37 31 62 32
66 106 166 143 193 34 26 58 33 148 46 73 11 121 34 194 94 33 27 64 51 70 53
6 3 22 22 35 44 14 22 28 40 32 40 4 0 19 21 34 48 26 44 82 122 88 122 2 0
84 -39 182 -86z m624 -14 c0 -11 -4 -20 -10 -20 -5 0 -10 2 -10 4 0 2 -3 11
-6 20 -4 11 -1 16 10 16 9 0 16 -8 16 -20z m-5 -88 c-8 -8 -25 17 -25 38 0 9
6 6 16 -8 9 -13 13 -26 9 -30z m75 -24 c0 -5 -16 -5 -38 1 -1 1 3 7 10 15 12
13 27 5 28 -16z m380 -553 c0 -8 -2 -15 -4 -15 -2 0 -6 7 -10 15 -3 8 -1 15 4
15 6 0 10 -7 10 -15z"/>
<path d="M5172 9804 c-31 -42 -32 -46 -17 -66 8 -13 15 -33 15 -45 0 -13 4
-23 9 -23 5 0 12 30 16 68 3 37 10 77 15 90 15 35 -2 25 -38 -24z"/>
<path d="M5220 8895 c0 -10 10 -15 30 -15 20 0 30 5 30 15 0 10 -10 15 -30 15
-20 0 -30 -5 -30 -15z"/>
<path d="M5168 8893 c-16 -4 -27 -43 -12 -43 16 0 44 23 44 35 0 15 -2 16 -32
8z"/>
<path d="M5220 8171 c0 -11 58 -61 71 -61 19 0 8 30 -20 49 -31 22 -51 27 -51
12z"/>
<path d="M5350 8086 c0 -13 61 -56 81 -56 23 0 5 27 -31 48 -46 26 -50 27 -50
8z"/>
<path d="M5510 8007 c0 -13 89 -49 102 -41 17 11 7 22 -35 38 -51 19 -67 20
-67 3z"/>
<path d="M5690 7947 c0 -7 21 -22 48 -35 55 -26 62 -27 62 -7 0 8 -21 23 -46
35 -54 23 -64 25 -64 7z"/>
<path d="M5820 7845 c0 -26 30 -75 45 -75 19 0 19 3 -5 50 -21 41 -40 52 -40
25z"/>
<path d="M5764 7641 c-37 -34 -51 -63 -26 -54 25 9 92 63 92 74 0 18 -36 8
-66 -20z"/>
<path d="M5769 7577 c-12 -13 -26 -18 -43 -15 -17 4 -26 1 -26 -8 0 -7 -17
-25 -37 -40 -38 -26 -38 -26 -8 -19 16 4 32 10 35 13 3 4 26 18 53 32 26 13
47 31 47 38 0 7 4 11 9 7 5 -3 12 -2 15 3 11 17 -27 8 -45 -11z"/>
<path d="M5638 7559 c-20 -10 -45 -32 -55 -49 -17 -29 -18 -29 -25 -9 -8 20
-13 21 -71 15 -96 -11 -117 -17 -117 -34 0 -12 14 -14 91 -7 72 5 90 4 84 -6
-6 -9 -2 -10 16 -6 13 4 32 7 42 7 9 0 17 5 17 10 0 6 -8 10 -17 10 -10 0 6
12 35 27 48 25 63 45 45 56 -5 3 -25 -3 -45 -14z"/>
<path d="M4718 7553 c12 -2 32 -2 45 0 12 2 2 4 -23 4 -25 0 -35 -2 -22 -4z"/>
<path d="M4842 7548 c3 -8 24 -14 54 -14 27 -1 36 0 19 3 -16 3 -33 10 -37 16
-6 9 -8 9 -8 0 0 -7 -5 -13 -11 -13 -5 0 -7 5 -4 10 3 6 1 10 -5 10 -7 0 -10
-6 -8 -12z"/>
<path d="M4973 7553 c20 -2 54 -2 75 0 20 2 3 4 -38 4 -41 0 -58 -2 -37 -4z"/>
<path d="M4646 7529 c3 -5 24 -9 46 -9 51 0 47 5 -10 13 -24 3 -40 1 -36 -4z"/>
<path d="M5043 7533 c20 -2 54 -2 75 0 20 2 3 4 -38 4 -41 0 -58 -2 -37 -4z"/>
<path d="M5233 7533 c9 -2 25 -2 35 0 9 3 1 5 -18 5 -19 0 -27 -2 -17 -5z"/>
<path d="M5540 7536 c0 -2 7 -6 15 -10 8 -3 15 -1 15 4 0 6 -7 10 -15 10 -8 0
-15 -2 -15 -4z"/>
<path d="M4898 7517 c-44 -6 -68 -14 -68 -22 0 -8 -3 -20 -6 -29 -3 -9 -1 -16
5 -16 6 0 10 5 9 12 -3 14 2 15 71 17 44 1 49 4 53 26 3 14 5 24 4 24 0 -1
-31 -6 -68 -12z"/>
<path d="M5358 7523 c6 -2 18 -2 25 0 6 3 1 5 -13 5 -14 0 -19 -2 -12 -5z"/>
<path d="M5013 7513 c-7 -2 -13 -11 -13 -19 0 -10 14 -14 53 -14 28 0 66 -4
83 -9 29 -8 30 -7 26 15 -4 22 -9 24 -57 24 -30 0 -59 2 -67 4 -7 3 -19 2 -25
-1z"/>
<path d="M4630 7502 c5 -2 10 -12 10 -23 0 -15 7 -19 38 -19 67 0 113 12 110
27 -2 11 -23 15 -86 16 -45 1 -78 1 -72 -1z"/>
<path d="M5220 7495 c0 -31 92 -33 98 -2 3 14 -4 17 -47 17 -38 0 -51 -4 -51
-15z"/>
<path d="M4536 7491 c-3 -4 6 -6 19 -3 14 2 25 6 25 8 0 8 -39 4 -44 -5z"/>
<path d="M3056 7481 c-10 -15 2 -31 23 -31 9 0 22 -5 28 -11 14 -14 29 -6 35
18 3 13 -1 18 -16 19 -12 1 -31 5 -42 9 -13 4 -25 2 -28 -4z"/>
<path d="M4498 7463 c7 -3 16 -2 19 1 4 3 -2 6 -13 5 -11 0 -14 -3 -6 -6z"/>
<path d="M4515 7445 c-27 -13 -53 -33 -57 -45 -7 -19 -6 -20 27 -5 19 8 51 22
70 30 19 8 35 22 35 30 0 21 -17 18 -75 -10z"/>
<path d="M3157 7453 c-16 -16 -4 -30 37 -42 74 -21 92 10 21 35 -46 16 -49 16
-58 7z"/>
<path d="M5458 7453 c6 -2 18 -2 25 0 6 3 1 5 -13 5 -14 0 -19 -2 -12 -5z"/>
<path d="M4720 7430 c0 -5 5 -10 10 -10 6 0 10 5 10 10 0 6 -4 10 -10 10 -5 0
-10 -4 -10 -10z"/>
<path d="M4853 7433 c9 -2 25 -2 35 0 9 3 1 5 -18 5 -19 0 -27 -2 -17 -5z"/>
<path d="M5238 7433 c12 -2 30 -2 40 0 9 3 -1 5 -23 4 -22 0 -30 -2 -17 -4z"/>
<path d="M3287 7406 c5 -22 49 -46 87 -46 30 0 14 34 -19 40 -17 4 -39 12 -51
18 -19 10 -21 9 -17 -12z"/>
<path d="M4430 7413 c0 -6 -18 -14 -40 -18 -22 -4 -42 -11 -46 -16 -3 -5 -16
-9 -30 -9 -17 0 -24 -5 -24 -20 0 -24 10 -25 79 -1 38 13 58 26 63 42 5 12 6
24 3 27 -3 3 -5 0 -5 -5z"/>
<path d="M3440 7355 c0 -9 -4 -13 -10 -10 -5 3 -10 3 -10 -2 0 -4 30 -9 66
-11 58 -2 65 -1 62 15 -5 25 -108 33 -108 8z"/>
<path d="M3693 7353 c9 -2 23 -2 30 0 6 3 -1 5 -18 5 -16 0 -22 -2 -12 -5z"/>
<path d="M4215 7340 c-16 -4 -42 -11 -57 -14 -16 -4 -28 -13 -28 -21 0 -31 99
-11 111 23 5 12 7 22 6 21 -1 0 -15 -4 -32 -9z"/>
<path d="M3590 7321 c0 -11 -6 -21 -12 -24 -7 -3 5 -3 27 0 22 3 63 1 92 -5
51 -9 51 -9 41 13 -8 18 -21 24 -62 29 -78 9 -86 8 -86 -13z"/>
<path d="M3774 7314 c-4 -11 -8 -21 -10 -24 -1 -3 27 -3 62 -2 47 3 64 7 64
18 0 8 -8 14 -17 14 -10 0 -35 3 -55 6 -31 5 -39 3 -44 -12z"/>
<path d="M4358 7323 c7 -3 16 -2 19 1 4 3 -2 6 -13 5 -11 0 -14 -3 -6 -6z"/>
<path d="M3508 7313 c7 -3 16 -2 19 1 4 3 -2 6 -13 5 -11 0 -14 -3 -6 -6z"/>
<path d="M3950 7300 c0 -18 7 -20 65 -20 58 0 65 2 65 20 0 18 -7 20 -65 20
-58 0 -65 -2 -65 -20z"/>
<path d="M4275 7290 c3 -5 14 -10 23 -10 15 0 15 2 2 10 -20 13 -33 13 -25 0z"/>
<path d="M4348 7293 c7 -3 16 -2 19 1 4 3 -2 6 -13 5 -11 0 -14 -3 -6 -6z"/>
<path d="M3618 7283 c7 -3 16 -2 19 1 4 3 -2 6 -13 5 -11 0 -14 -3 -6 -6z"/>
<path d="M4215 7280 c4 -6 -6 -10 -22 -11 -15 0 -37 -5 -48 -10 -15 -7 -10 -8
20 -4 22 2 54 5 70 6 17 1 22 3 13 6 -10 2 -18 9 -18 14 0 5 -5 9 -11 9 -5 0
-7 -4 -4 -10z"/>
<path d="M3703 7263 c9 -2 23 -2 30 0 6 3 -1 5 -18 5 -16 0 -22 -2 -12 -5z"/>
<path d="M3783 7253 c9 -2 23 -2 30 0 6 3 -1 5 -18 5 -16 0 -22 -2 -12 -5z"/>
<path d="M3950 7251 c0 -5 -8 -12 -17 -14 -10 -3 -3 -5 15 -6 19 0 31 3 27 8
-3 6 17 12 47 14 l53 3 -62 2 c-35 1 -63 -2 -63 -7z"/>
<path d="M3998 7233 c7 -3 16 -2 19 1 4 3 -2 6 -13 5 -11 0 -14 -3 -6 -6z"/>
<path d="M3777 6048 c-14 -58 -166 -766 -169 -788 l-3 -25 118 -3 117 -3 0 43
c-1 80 -48 789 -53 794 -2 3 -7 -5 -10 -18z"/>
<path d="M3027 2770 c-15 -33 -27 -66 -27 -75 0 -8 -4 -15 -9 -15 -5 0 -12
-27 -16 -60 -4 -33 -11 -60 -15 -60 -4 0 -11 -15 -14 -34 -6 -34 -36 -65 -135
-146 -23 -19 -48 -40 -55 -47 -52 -48 -152 -68 -192 -38 -10 8 -26 15 -34 15
-17 0 -151 66 -160 78 -5 8 -153 106 -210 139 -19 12 -74 29 -121 38 -85 17
-86 17 -128 -4 -46 -24 -46 -36 -1 -46 17 -4 30 -10 30 -15 0 -5 14 -11 30
-15 17 -4 30 -10 30 -15 0 -5 14 -11 30 -15 17 -4 30 -11 30 -16 0 -5 5 -9 11
-9 15 0 130 -51 285 -126 72 -35 137 -64 143 -64 6 0 11 -4 11 -9 0 -5 14 -12
30 -16 17 -4 30 -11 30 -16 0 -5 5 -9 12 -9 6 0 39 -13 72 -29 34 -16 93 -43
131 -61 96 -44 224 -104 322 -151 44 -21 86 -39 92 -39 6 0 11 -4 11 -9 0 -5
14 -12 30 -16 17 -4 30 -10 30 -15 0 -5 14 -11 30 -15 17 -4 30 -11 30 -16 0
-5 5 -9 12 -9 6 0 30 -9 52 -19 23 -11 73 -34 111 -51 39 -18 111 -52 162 -76
50 -24 96 -44 102 -44 6 0 11 -4 11 -10 0 -5 5 -10 11 -10 7 0 45 -16 85 -35
40 -19 77 -35 83 -35 6 0 11 -4 11 -10 0 -5 6 -10 13 -10 6 0 34 -12 62 -25
27 -13 51 -23 53 -21 2 2 -88 122 -200 266 -233 301 -272 351 -313 406 -16 21
-36 45 -42 52 -7 7 -13 16 -13 20 0 4 -15 23 -33 43 -17 20 -39 47 -47 59 -8
12 -20 28 -25 34 -9 9 -72 90 -213 273 -9 12 -24 31 -32 43 -8 12 -23 31 -33
43 -9 11 -32 40 -50 63 -17 24 -35 44 -38 44 -3 0 -18 -27 -32 -60z"/>
<path d="M2403 2102 c-13 -2 -23 -7 -23 -12 0 -4 -20 -11 -45 -14 -25 -4 -45
-11 -45 -17 0 -5 -6 -9 -13 -9 -38 0 -207 -196 -207 -241 0 -10 -5 -19 -10
-21 -14 -4 -15 -198 -1 -207 31 -20 29 -204 -3 -237 -27 -27 -17 -35 22 -18
20 9 48 20 62 24 27 9 88 33 137 56 17 8 34 14 39 14 4 0 42 14 84 31 l77 30
-1 314 -1 313 -25 -1 c-14 -1 -35 -3 -47 -5z"/>
<path d="M3389 1672 c-9 -10 -24 -34 -35 -53 -32 -57 -109 -152 -155 -191 -65
-54 -93 -77 -104 -85 -23 -18 -123 -53 -150 -53 -71 0 -106 -13 -148 -54 -49
-47 -127 -163 -127 -188 0 -9 -6 -19 -12 -21 -25 -10 41 -7 67 3 15 6 55 17
89 24 33 8 88 21 121 29 33 8 103 25 155 37 52 12 120 28 150 36 190 47 231
56 288 66 34 6 62 15 62 19 0 4 27 10 60 14 33 4 60 11 60 15 0 4 24 11 53 15
28 4 57 11 62 15 6 4 35 12 65 18 142 28 203 46 189 55 -17 11 -98 47 -108 47
-6 0 -11 5 -11 10 0 6 -5 10 -11 10 -6 0 -57 22 -112 49 -56 26 -129 61 -162
76 -33 15 -92 43 -130 61 -39 19 -75 34 -82 34 -6 0 -13 4 -15 9 -7 19 -44 21
-59 3z"/>
<path d="M8671 8524 c0 -11 3 -14 6 -6 3 7 2 16 -1 19 -3 4 -6 -2 -5 -13z"/>
<path d="M4865 610 c-3 -5 3 -10 14 -10 12 0 21 5 21 10 0 6 -6 10 -14 10 -8
0 -18 -4 -21 -10z"/>
<path d="M4795 570 c-3 -5 3 -10 14 -10 12 0 21 5 21 10 0 6 -6 10 -14 10 -8
0 -18 -4 -21 -10z"/>
</g>
</svg>
